<svg width="40" height="40" viewBox="0 0 40 40" fill="none" xmlns="http://www.w3.org/2000/svg">
<path d="M1.66724 1.66943V11.6662H5.00221V4.99787H11.6705V1.66943H1.66724ZM28.3355 1.66943V4.99787H35.0038V11.6662H38.3306V1.66943H28.3355ZM8.33554 8.33123V11.6662H11.6705V8.33123H8.33554ZM11.6705 11.6662V14.9995H14.9974V11.6662H11.6705ZM14.9974 14.9995V18.3345H18.3323V14.9995H14.9974ZM18.3323 18.3345V21.6678H21.6673V18.3345H18.3323ZM21.6673 18.3345H25.0006V14.9995H21.6673V18.3345ZM25.0006 14.9995H28.3356V11.6662H25.0006V14.9995ZM28.3356 11.6662H31.6689V8.33123H28.3356V11.6662ZM21.6673 21.6678V25.0027H25.0006V21.6678H21.6673ZM25.0006 25.0027V28.3296H28.3356V25.0027H25.0006ZM28.3356 28.3296V31.6646H31.6689V28.3296H28.3356ZM18.3323 21.6678H14.9974V25.0027H18.3323V21.6678ZM14.9974 25.0027H11.6705V28.3296H14.9974V25.0027ZM11.6705 28.3296H8.33554V31.6646H11.6705V28.3296ZM1.66728 28.3296V38.3328H11.6705V34.9979H5.00221V28.3296H1.66728ZM35.0039 28.3296V34.9979H28.3356V38.3328H38.3307V28.3296H35.0039Z" fill="#FFCB00"/>
</svg>
