<svg width="40" height="40" viewBox="0 0 40 40" fill="none" xmlns="http://www.w3.org/2000/svg">
<path d="M36.4703 16.4703V11.7648H34.1179V9.41172H31.7648V7.05859H27.0586V4.70625H22.3531V0H20V4.70625H15.2945V7.05859H10.5883V9.41172H8.23513V11.7648H5.88279V16.4703H3.52966V28.2352H5.88279V32.9414H8.23513V35.2938H10.5883V37.6469H15.2945V40H27.0586V37.6469H31.7648V35.2938H34.1179V32.9414H36.4703V28.2352H38.8234V16.4703H36.4703Z" fill="black"/>
<path d="M36.4703 2.35303H38.8235V4.70615H36.4703V2.35303Z" fill="#00A8E1"/>
<path d="M34.1179 0H36.4703V2.35313H34.1179V0Z" fill="#00A8E1"/>
<path d="M31.7649 2.35303H34.118V4.70615H31.7649V2.35303Z" fill="#00A8E1"/>
<path d="M34.1179 4.70605H36.4703V7.0584H34.1179V4.70605Z" fill="#00A8E1"/>
<path d="M3.52966 2.35303H5.88279V4.70615H3.52966V2.35303Z" fill="#BC4799"/>
<path d="M5.88281 4.70605H8.23516V7.0584H5.88281V4.70605Z" fill="#BC4799"/>
<path d="M1.17651 4.70605H3.52964V7.0584H1.17651V4.70605Z" fill="#BC4799"/>
<path d="M3.52966 7.05859H5.88279V9.41172H3.52966V7.05859Z" fill="#BC4799"/>
<path d="M24.7063 35.2939H27.0586V37.6471H24.7063V35.2939Z" fill="#EB7199"/>
<path d="M36.4703 28.2353V23.5298H31.7649V25.8821H29.4117V28.2353H36.4703Z" fill="#00A8E1"/>
<path d="M27.0586 30.5884V25.8821H29.4117V23.5298H20H12.9414V25.8821H15.2945V30.5884H24.7063H27.0586Z" fill="#EB7199"/>
<path d="M15.2946 35.2939H17.6469V37.6471H15.2946V35.2939Z" fill="#00A8E1"/>
<path d="M10.5882 30.5884H8.23511V32.9415H10.5882V35.2938H12.9414H15.2945V30.5884H10.5882Z" fill="#CDE8F8"/>
<path d="M24.7062 11.7648V9.41172H22.3531V7.05859H20V9.41172H17.6469V11.7648H24.7062Z" fill="#CDE8F8"/>
<path d="M15.2946 7.05859H17.6469V9.41172H15.2946V7.05859Z" fill="#CDE8F8"/>
<path d="M31.7648 11.7647V9.41162H27.0586V14.1179H34.118V11.7647H31.7648Z" fill="#EB7199"/>
<path d="M27.0586 30.5884V35.2938H31.7648V32.9415H34.118V30.5884H27.0586Z" fill="#EB7199"/>
<path d="M24.7063 7.05859H27.0586V9.41172H24.7063V7.05859Z" fill="#EB7199"/>
<path d="M17.6469 32.9414V35.2938H20V37.6469H22.3531V35.2938H24.7062V32.9414H17.6469Z" fill="#00A8E1"/>
<path d="M10.5883 23.5298H5.88281V28.2353H12.9414V25.8821H10.5883V23.5298Z" fill="#FADBE6"/>
<path d="M36.4703 35.2939H38.8235V37.6471H36.4703V35.2939Z" fill="#F8DB2B"/>
<path d="M1.17651 11.7646H3.52964V14.1178H1.17651V11.7646Z" fill="#F8DB2B"/>
<path d="M31.7649 21.1765H36.4703V16.4702H29.4117V18.8233H31.7649V21.1765Z" fill="#FFC906"/>
<path d="M15.2945 18.8236H12.9414V21.1768H29.4117V18.8236H27.0586V14.1182H15.2945V18.8236Z" fill="#F8DB2B"/>
<path d="M5.88281 16.4702V21.1765H10.5883V18.8233H12.9414V16.4702H5.88281Z" fill="#F8F29E"/>
<path d="M10.5882 9.41162V11.7647H8.23511V14.1179H15.2945V9.41162H10.5882Z" fill="#F1F9FD"/>
<path d="M34.1179 16.4702H36.4703V21.1765H34.1179V16.4702Z" fill="#F5851F"/>
<path d="M34.118 23.5298V25.8821H31.7649V28.2353H36.4704V23.5298H34.118Z" fill="#0D74C9"/>
<path d="M31.7649 11.7646H34.118V14.1178H31.7649V11.7646Z" fill="#BC4799"/>
<path d="M29.4117 9.41162H31.7649V11.7647H29.4117V9.41162Z" fill="#BC4799"/>
<path d="M29.4117 30.5884V32.9415H27.0586V35.2938H31.7648V32.9415H34.118V30.5884H29.4117Z" fill="#BC4799"/>
<path d="M24.7063 35.2939H27.0586V37.6471H24.7063V35.2939Z" fill="#BC4799"/>
<path d="M22.3531 32.9414H24.7063V35.2938H22.3531V32.9414Z" fill="#EB7199"/>
<path d="M22.3531 9.41162H24.7063V11.7647H22.3531V9.41162Z" fill="#F8DB2B"/>
<path d="M20 23.5298V25.8821H22.3531V28.2353H24.7062V30.5884H27.0586V25.8821H29.4117V23.5298H20Z" fill="#00A8E1"/>
<path d="M27.0586 18.8236V14.1182H22.3531V16.4705H20V21.1768H29.4117V18.8236H27.0586Z" fill="#FFC906"/>
<path d="M20 7.05859H22.3531V9.41172H20V7.05859Z" fill="#B5B8DC"/>
<path d="M12.9414 11.7646H15.2945V14.1178H12.9414V11.7646Z" fill="#F8DB2B"/>
<path d="M12.9414 9.41162H15.2945V11.7647H12.9414V9.41162Z" fill="#CDE8F8"/>
<path d="M10.5883 30.5884V32.9415H12.9414V35.2938H15.2945V30.5884H10.5883Z" fill="#00A8E1"/>
<path d="M10.5883 11.7646H12.9414V14.1178H10.5883V11.7646Z" fill="#CDE8F8"/>
<path d="M10.5882 25.8821V23.5298H8.23511V28.2353H12.9414V25.8821H10.5882Z" fill="#EB7199"/>
<path d="M8.23511 16.4702V21.1765H10.5882V18.8233H12.9414V16.4702H8.23511Z" fill="#F8DB2B"/>
</svg>
