<svg width="40" height="40" viewBox="0 0 40 40" fill="none" xmlns="http://www.w3.org/2000/svg">
<g clip-path="url(#clip0_16150_16121)">
<path d="M37.6469 14.1172V11.7648H35.2945V9.41172H37.6469V7.05859H30.5883V9.41172H32.9414V11.7648H23.5297V7.05859H25.882V4.70547H23.5297V2.35234H16.4703V4.70547H14.118V2.35234H11.7648V0H9.41172V2.35234H7.05859V4.70547H4.70625V7.05859H7.05859V9.41172H9.41172V11.7648H2.35313V14.1172H0V37.6469H2.35313V40H37.6469V37.6469H40V14.1172H37.6469ZM11.7648 9.41172H14.118V7.05859H16.4703V11.7648H11.7648V9.41172Z" fill="black"/>
<path d="M2.35315 14.1172V37.6469H37.6469V14.1172H2.35315ZM7.05862 35.2937H4.70627V32.9406H7.05862V35.2937ZM25.8821 30.5883H23.5297V32.9406H21.1766V35.2937H11.7649V32.9406H9.41174V30.5883H7.05862V21.1766H9.41174V18.8234H11.7649V16.4703H21.1766V18.8234H23.5297V21.1766H25.8821V30.5883Z" fill="#E8F1F9"/>
<path d="M28.2351 18.8232H35.2945V21.1764H28.2351V18.8232Z" fill="#F7DA29"/>
<path d="M18.8235 9.41162H21.1766V11.7647H18.8235V9.41162Z" fill="#6E67D5"/>
<path d="M16.4703 4.70557H23.5297V7.05869H16.4703V4.70557Z" fill="#6E67D5"/>
<path d="M14.1179 23.5288H18.8234V28.2351H14.1179V23.5288Z" fill="#6E67D5"/>
<path d="M21.1766 21.1764V18.8232H11.7649V21.1764H9.41174V30.5881H11.7649V32.9404H21.1766V30.5881H23.5297V21.1764H21.1766ZM21.1766 28.235H18.8235V30.5881H14.118V28.235H11.7649V23.5287H14.118V21.1764H18.8235V23.5287H21.1766V28.235Z" fill="#04A6DF"/>
<path d="M11.7648 4.70566V2.35254H9.41172V4.70566H7.05859V7.05879H9.41172V9.41191H11.7648V7.05879H14.118V4.70566H11.7648Z" fill="#FFC906"/>
<path d="M4.7063 32.9404H7.05864V35.2936H4.7063V32.9404Z" fill="#EA7098"/>
<path d="M32.9414 14.1172V16.4703H35.2945V35.2937H32.9414V37.6469H37.6469V14.1172H32.9414Z" fill="#B4B7DC"/>
<path d="M21.1765 21.1768H23.5296V30.5885H21.1765V21.1768Z" fill="#0D74C9"/>
<path d="M18.8235 30.5884H21.1766V32.9407H18.8235V30.5884Z" fill="#0D74C9"/>
<path d="M18.8235 18.8232H21.1766V21.1764H18.8235V18.8232Z" fill="#0D74C9"/>
<path d="M21.1765 4.70557H23.5296V7.05869H21.1765V4.70557Z" fill="#55479C"/>
<path d="M16.4703 23.5288H18.8235V28.2351H16.4703V23.5288Z" fill="#55479C"/>
<path d="M11.7649 4.70557H14.118V7.05869H11.7649V4.70557Z" fill="#F58420"/>
<path d="M9.41174 7.05859H11.7649V9.41172H9.41174V7.05859Z" fill="#F58420"/>
<path d="M9.41174 2.35254H11.7649V4.70566H9.41174V2.35254Z" fill="#F58420"/>
</g>
<defs>
<clipPath id="clip0_16150_16121">
<rect width="40" height="40" fill="white"/>
</clipPath>
</defs>
</svg>
