<svg width="40" height="40" viewBox="0 0 40 40" fill="none" xmlns="http://www.w3.org/2000/svg">
<g clip-path="url(#clip0_16150_16122)">
<path d="M40 11.7648V18.8234H37.6469V21.1766H32.9414V25.882H35.2938V28.2352H37.6469V35.2938H35.2938V37.6469H30.5883V40H23.5297V37.6469H21.1766V35.2938H18.8234V37.6469H16.4703V40H9.41172V37.6469H4.70625V35.2938H2.35313V28.2352H4.70625V25.882H7.05859V21.1766H2.35313V18.8234H0V11.7648H2.35313V9.41172H7.05859V7.05859H11.7648V2.35313H14.118V0H18.8234V2.35313H21.1766V0H25.882V2.35313H28.2352V7.05859H32.9414V9.41172H37.6469V11.7648H40Z" fill="black"/>
<path d="M24.7062 20.0001V24.7063L28.2352 23.5298H30.5883V25.8821H32.9414V28.2353L34.4422 32.3884L30.5883 35.2939L27.0586 36.4704L23.5297 35.2939L21.1766 32.9415V28.2353L20.0695 27.0587L18.8234 28.2353V32.9415L16.4703 35.2939L12.7531 36.4704L9.41171 35.2939L5.43749 32.3485L7.05859 28.2353V25.8821H9.41171V23.5298H11.7648L15.2906 24.7063L15.2937 20.0001L11.7648 21.1767H7.05859V18.8235H4.70625L2.91492 14.1181L7.05859 11.7649L9.41171 10.5884L11.7648 11.7649H14.118V16.4712L17.4294 17.647L16.4703 14.1181L16.4711 11.7649H14.118V4.70635L16.4703 3.52979L18.8234 4.70635L20 5.88291L21.1766 4.70635L23.5297 3.52979L25.882 4.70635V11.7649H23.5297V14.1181L22.2297 17.647L25.8828 16.4712V11.7649H28.2352L30.5883 10.5884L32.9414 11.7649L36.7494 13.5806L35.2937 18.8235H32.9414V21.1767H28.2352L24.7062 20.0001Z" fill="#FFA6B2"/>
<path d="M27.0586 19.9999L25.882 21.1765V23.5296L23.5297 27.0585H16.4703L14.118 23.5296V21.1765L12.9414 19.9999L16.4818 16.4818L17.6766 15.2944H22.3531L23.5293 16.4706L27.0586 19.9999Z" fill="#C8001C"/>
<path d="M9.41174 14.1182H11.7649V16.4705H9.41174V14.1182Z" fill="#FF415B"/>
<path d="M9.41174 30.5884H11.7649V32.9415H9.41174V30.5884Z" fill="#FF415B"/>
<path d="M9.41174 14.1181H7.05862L5.9469 12.9415L7.05862 11.7649L8.26573 10.5884L9.41174 11.7649V14.1181Z" fill="#FF415B"/>
<path d="M28.2352 23.5298V25.8821H25.8821V28.2353H21.1766L20.0344 27.4048L18.8235 28.2353H14.118V25.8821H11.7649V23.5298H14.118L16.4704 25.8821H18.8235L20.0344 26.7126L21.1766 25.8821H23.5297L25.8821 23.5298H28.2352Z" fill="#FF415B"/>
<path d="M25.8821 16.4702H28.2352V21.1765H25.8821V18.8233L24.7063 17.6468L25.8821 16.4702Z" fill="#FF415B"/>
<path d="M16.4703 18.8232H23.5297V23.5295H16.4703V18.8232Z" fill="#FF415B"/>
<path d="M25.8821 28.2354H28.2352V30.5885H25.8821V28.2354Z" fill="#FF415B"/>
<path d="M28.2351 14.1182H30.5882V16.4705H28.2351V14.1182Z" fill="#FF415B"/>
<path d="M18.8235 16.4703H16.4703V14.118H18.8235V7.05859L20 5.88281L21.1766 7.05859V14.118H23.5297V16.4703H21.1766L20 15.2945L18.8235 16.4703Z" fill="#FF415B"/>
<path d="M34.086 12.9415L32.9414 14.1181H30.5883V11.7649L31.7045 10.5884L32.9414 11.7649L34.086 12.9415Z" fill="#FF415B"/>
<path d="M28.2351 30.5884H30.5882V32.9415H28.2351V30.5884Z" fill="#FF415B"/>
<path d="M11.7649 16.4702H14.118L15.2938 17.6468L14.118 18.8233V21.1765H11.7649V16.4702Z" fill="#FF415B"/>
<path d="M11.7649 28.2354H14.118V30.5885H11.7649V28.2354Z" fill="#FF415B"/>
<path d="M23.5297 23.5298H25.882V25.8821H23.5297V23.5298Z" fill="#FFD944"/>
<path d="M18.8235 25.8818H21.1766V28.235H18.8235V25.8818Z" fill="#FFD944"/>
<path d="M14.1179 23.5298H16.4703V25.8821H14.1179V23.5298Z" fill="#FFD944"/>
<path d="M14.1179 16.4702H16.4703V18.8233H14.1179V16.4702Z" fill="#FFD944"/>
<path d="M18.8235 14.1182H21.1766V16.4705H18.8235V14.1182Z" fill="#FFD944"/>
<path d="M23.5297 16.4702H25.882V18.8233H23.5297V16.4702Z" fill="#FFD944"/>
<path d="M14.1179 2.35303H18.8234V4.70615H14.1179V2.35303Z" fill="#FFDCE1"/>
<path d="M9.41174 35.2939H16.4703V37.6471H9.41174V35.2939Z" fill="#FFDCE1"/>
<path d="M16.4703 32.9414H18.8235V35.2938H16.4703V32.9414Z" fill="#FFDCE1"/>
<path d="M18.8235 4.70605H21.1766V7.0584H18.8235V4.70605Z" fill="#FFDCE1"/>
<path d="M4.70627 18.8232H2.35315V11.7646H7.05862V14.1178H4.70627V18.8232Z" fill="#FFDCE1"/>
<path d="M7.05859 9.41162H11.7648V11.7647H7.05859V9.41162Z" fill="#FFDCE1"/>
<path d="M9.41177 32.9416V35.2939H4.7063V28.2354H7.05864V32.9416H9.41177Z" fill="#FFDCE1"/>
<path d="M21.1765 2.35303H25.882V4.70615H21.1765V2.35303Z" fill="#FFDCE1"/>
<path d="M21.1765 32.9414H23.5296V35.2938H21.1765V32.9414Z" fill="#FFDCE1"/>
<path d="M28.2351 9.41162H32.9414V11.7647H28.2351V9.41162Z" fill="#FFDCE1"/>
<path d="M32.9414 28.2354H35.2937V35.2939H30.5883V32.9416H32.9414V28.2354Z" fill="#FFDCE1"/>
<path d="M37.6469 11.7646V18.8232H35.2938V14.1178H32.9414V11.7646H37.6469Z" fill="#FFDCE1"/>
<path d="M23.5297 35.2939H30.5883V37.6471H23.5297V35.2939Z" fill="#FFDCE1"/>
</g>
<defs>
<clipPath id="clip0_16150_16122">
<rect width="40" height="40" fill="white"/>
</clipPath>
</defs>
</svg>
