<svg width="40" height="40" viewBox="0 0 40 40" fill="none" xmlns="http://www.w3.org/2000/svg">
<g clip-path="url(#clip0_16151_17264)">
<path d="M37.3913 12.1739V7.82609H34.7826V5.21742H32.1739V2.60867H27.8261V0H12.1739V2.60867H7.82608V5.21742H5.21741V7.82609H2.60866V12.1739L0.000610352 12.1741V27.8263H2.60866V32.1739H5.21741V33.0435V34.7826H7.82608V35.6522V37.3913H12.1739V38.2609V40H27.8261V38.2609V37.3913H32.1739V35.6522V34.7826H34.7826V33.0435V32.1739H37.3913V27.8263H38.2614V27.8261H40V12.1739H37.3913Z" fill="#FFDE46"/>
<path d="M8.51562 19.0625H10.306V17.2656H12.0964V15.4688H13.8867V13.6719H17.4675V17.2656H30V22.6562H17.4675V26.25H13.8867V24.4531H12.0964V22.6562H10.306V20.8594H8.51562V19.0625Z" fill="black"/>
<path d="M37.3913 12.1739V7.82609H34.7826V5.21742H32.1739V2.60867H27.8261V0H12.1739V2.60867H7.82609V5.21742H5.21742V7.82609H2.60867V12.1739H0V14.7826H2.60867H5.21742V12.1739V10.4348H7.82609V7.82609H10.4348V5.21742H12.1739H27.8261H29.5652V7.82609H32.1739V10.4348H34.7826V12.1739V14.7826H37.3913H40V12.1739H37.3913Z" fill="white"/>
<path d="M12.1739 2.60889H7.82605V5.21756H12.1739V2.60889Z" fill="black"/>
<path d="M7.82608 5.21729H5.21741V7.82596H7.82608V5.21729Z" fill="black"/>
<path d="M5.21731 7.82617H2.60864V12.174H5.21731V7.82617Z" fill="black"/>
<path d="M5.21731 27.8262H2.60864V32.174H5.21731V27.8262Z" fill="black"/>
<path d="M7.82608 32.1738H5.21741V34.7825H7.82608V32.1738Z" fill="black"/>
<path d="M12.1739 34.7827H7.82605V37.3914H12.1739V34.7827Z" fill="black"/>
<path d="M27.8261 0H12.174V2.60867H27.8261V0Z" fill="black"/>
<path d="M27.8261 37.3911H12.174V39.9998H27.8261V37.3911Z" fill="black"/>
<path d="M2.60867 12.1738H0V27.826H2.60867V12.1738Z" fill="black"/>
<path d="M32.1739 2.60889H27.826V5.21756H32.1739V2.60889Z" fill="black"/>
<path d="M34.7826 5.21729H32.174V7.82596H34.7826V5.21729Z" fill="black"/>
<path d="M37.3913 7.82617H34.7826V12.174H37.3913V7.82617Z" fill="black"/>
<path d="M37.3913 27.8262H34.7826V32.174H37.3913V27.8262Z" fill="black"/>
<path d="M34.7826 32.1738H32.174V34.7825H34.7826V32.1738Z" fill="black"/>
<path d="M32.1739 34.7827H27.826V37.3914H32.1739V34.7827Z" fill="black"/>
<path d="M40 12.1738H37.3914V27.826H40V12.1738Z" fill="black"/>
</g>
<defs>
<clipPath id="clip0_16151_17264">
<rect width="40" height="40" fill="white"/>
</clipPath>
</defs>
</svg>
