<svg id="Layer_1" enable-background="new 0 0 512 512" viewBox="0 0 512 512" xmlns="http://www.w3.org/2000/svg"><g id="_x33_5_crop_00000116936170422655802650000008635484310696255928_"><g><path d="m421.65 120.47v271.06h-30.12v30.12h-271.06v-30.12h-30.12v-271.06h30.12v-30.12h271.06v30.12z"/></g><g><g fill="#58b354"><path d="m361.41 331.29h-30.12v30.12h30.12l15.06 15.06 15.06-15.06v-30.12l-15.06-15.055z"/><path d="m271.06 301.18h-30.12l-30.12-15.06-30.11 15.06h-30.12v30.11h-30.12v30.12l10.209 11.368 164.108 3.692 6.393-15.06v-30.12h-30.12z"/></g><g><path d="m391.53 150.59v120.47h-30.12v30.12h-30.12v30.11h-30.11v-30.11h-30.12v-30.12h-30.12v-30.12h-60.23v30.12h-30.12v30.12h-30.12v-150.59l14.239-14.249 241.761-1.616z" fill="#2fbfef"/></g></g><g><g fill="#4894ff"><path d="m90.35 30.12 15.06 15.06-15.06 15.06v30.11h-30.11l-15.06 15.06-15.06-15.06h-30.12v-90.35h90.35z"/><path d="m90.35 451.76 15.06 15.06-15.06 15.06v30.12h-90.35v-90.35h30.12l15.06-15.06 15.06 15.06h30.11z"/><path d="m481.88 421.65h30.12v90.35h-90.35v-30.12l-15.06-15.06 15.06-15.06v-30.11h30.11l15.06-15.06z"/><path d="m512 0v90.35h-30.12l-15.06 15.06-15.06-15.06h-30.11v-30.11l-15.06-15.06 15.06-15.06v-30.12z"/></g><g fill="#3f883c"><path d="m361.41 361.41h30.12v30.12h-30.12z"/><path d="m120.47 361.41h210.82v30.12h-210.82z"/></g><g fill="#b3ddb1"><path d="m361.41 301.18h30.12v30.11h-30.12z"/><path d="m180.71 271.06h60.23v30.12h-60.23z"/></g><g fill="#bdeaf9"><path d="m451.76 451.76h30.12v30.12h-30.12z"/><path d="m451.76 60.24h30.12v-30.12h-30.12"/><path d="m391.53 120.47v30.12h-60.24l-15.06 15.06-15.05-15.06h-180.71v-30.12z"/><path d="m30.12 451.76h30.12v30.12h-30.12z"/><path d="m30.12 30.12h30.12v30.12h-30.12z"/></g><g><path d="m361.41 180.71v30.11h-30.12v30.12h-30.11v-30.12h-30.12v-30.11h30.12v-30.12h30.11v30.12z" fill="#804111"/></g><g><path d="m301.18 180.71h30.11v30.11h-30.11z" fill="#ffd322"/></g><g fill="#5f6c75"><path d="m391.53 30.12h30.12v30.12h-30.12z"/><path d="m331.29 30.12h30.12v30.12h-30.12z"/><path d="m271.06 30.12h30.12v30.12h-30.12z"/><path d="m210.82 30.12h30.12v30.12h-30.12z"/><path d="m150.59 30.12h30.12v30.12h-30.12z"/><path d="m451.76 391.53h30.12v30.12h-30.12z"/><path d="m451.76 331.29h30.12v30.12h-30.12z"/><path d="m451.76 271.06h30.12v30.12h-30.12z"/><path d="m451.76 210.82h30.12v30.12h-30.12z"/><path d="m451.76 150.59h30.12v30.12h-30.12z"/><path d="m451.76 90.35h30.12v30.12h-30.12z"/><path d="m391.53 451.76h30.12v30.12h-30.12z"/><path d="m331.29 451.76h30.12v30.12h-30.12z"/><path d="m271.06 451.76h30.12v30.12h-30.12z"/><path d="m210.82 451.76h30.12v30.12h-30.12z"/><path d="m150.59 451.76h30.12v30.12h-30.12z"/><path d="m90.35 451.76h30.12v30.12h-30.12z"/><path d="m90.35 30.12h30.12v30.12h-30.12z"/><path d="m30.12 391.53h30.12v30.12h-30.12z"/><path d="m30.12 331.29h30.12v30.12h-30.12z"/><path d="m30.12 271.06h30.12v30.12h-30.12z"/><path d="m30.12 210.82h30.12v30.12h-30.12z"/><path d="m30.12 150.59h30.12v30.12h-30.12z"/><path d="m30.12 90.35h30.12v30.12h-30.12z"/></g></g></g><g/><g/><g/><g/><g/><g/><g/><g/><g/><g/><g/><g/><g/><g/><g/></svg>