<svg width="40" height="40" viewBox="0 0 40 40" fill="none" xmlns="http://www.w3.org/2000/svg">
<g clip-path="url(#clip0_16150_16010)">
<path d="M40 14.118V25.882H37.6469V30.5883H35.2938V32.9414H32.9414V35.2938H30.5883V37.6469H25.882V40H14.118V37.6469H9.41172V35.2938H7.05859V32.9414H4.70625V30.5883H2.35313V25.882H0V14.118H2.35313V9.41172H4.70625V7.05859H7.05859V4.70625H9.41172V2.35313H14.118V0H25.882V2.35313H30.5883V4.70625H32.9414V7.05859H35.2938V9.41172H37.6469V14.118H40Z" fill="black"/>
<path d="M25.882 18.8236V21.1768H23.5296V23.5299H21.1765V25.8822H18.8234V23.5299H16.4703V21.1768H14.1179V18.8236H16.4703V16.4705H18.8234V14.1182H21.1765V16.4705H23.5296V18.8236H25.882Z" fill="white"/>
<path d="M14.118 21.1768V25.8822H11.7649V28.2354H9.41174V30.5885H4.70627V25.8822H2.35315V21.1768H14.118Z" fill="#4894FF"/>
<path d="M14.118 14.1179V18.8233H2.35315V14.1179H4.70627V9.41162H9.41174V11.7647H11.7649V14.1179H14.118Z" fill="#5F69E2"/>
<path d="M37.6469 14.1179V18.8233H25.8821V14.1179H28.2352V11.7647H30.5883V9.41162H35.2938V14.1179H37.6469Z" fill="#FF9000"/>
<path d="M37.6469 21.1768V25.8822H35.2938V30.5885H30.5883V28.2354H28.2352V25.8822H25.8821V21.1768H37.6469Z" fill="#FFD322"/>
<path d="M30.5882 30.5881V32.9412L25.882 35.2936L23.5296 36.4701L21.1765 35.2936V25.8818H25.882V28.235H28.2351V30.5881H30.5882Z" fill="#58B354"/>
<path d="M18.8235 25.8818V35.2936L16.4703 36.4701L14.118 35.2936L9.41174 32.9412V30.5881H11.7649V28.235H14.118V25.8818H18.8235Z" fill="#2FBFEF"/>
<path d="M18.8235 4.70635V14.1181H14.118V11.7649H11.7649V9.41182H9.41174V7.05869L14.118 4.70635L16.4703 3.52979L18.8235 4.70635Z" fill="#FF80A9"/>
<path d="M30.5882 7.05869V9.41182H28.2351V11.7649H25.882V14.1181H21.1765V4.70635L23.5296 3.52979L25.882 4.70635L30.5882 7.05869Z" fill="#FF415B"/>
<path d="M21.1765 35.2939H25.882V37.6471H21.1765V35.2939Z" fill="#3F883C"/>
<path d="M25.8821 32.9414H30.5883V35.2938H25.8821V32.9414Z" fill="#3F883C"/>
<path d="M9.41174 32.9414H14.118V35.2938H9.41174V32.9414Z" fill="#0D90BC"/>
<path d="M14.1179 35.2939H18.8234V37.6471H14.1179V35.2939Z" fill="#0D90BC"/>
<path d="M14.1179 2.35303H18.8234V4.70615H14.1179V2.35303Z" fill="#FBD5E8"/>
<path d="M9.41174 4.70605H14.118V7.0584H9.41174V4.70605Z" fill="#FBD5E8"/>
<path d="M21.1765 2.35303H25.882V4.70615H21.1765V2.35303Z" fill="#FFC8CF"/>
<path d="M25.8821 4.70605H30.5883V7.0584H25.8821V4.70605Z" fill="#FFC8CF"/>
</g>
<defs>
<clipPath id="clip0_16150_16010">
<rect width="40" height="40" fill="white"/>
</clipPath>
</defs>
</svg>
