<svg id="Layer_1" enable-background="new 0 0 512 512" viewBox="0 0 512 512" xmlns="http://www.w3.org/2000/svg"><g id="_x31_7_hatch_00000008872010195728059410000003721409197659250590_"><g><path d="m481.88 120.47v60.24h-30.12v30.11h-30.11v90.36h30.11v30.11h30.12v30.12h-30.12v60.24h-30.11v30.11h-30.12v30.12h-60.24v30.12h-150.58v-30.12h-60.24v-30.12h-30.12v-30.11h-30.11v-60.24h-30.12v-60.23h30.12v-30.12h30.11v-60.24h-30.11v-30.11h-30.12v-60.24h90.35v-60.23h30.12v-30.12h30.12v-30.12h150.58v30.12h30.12v30.12h30.12v60.23z"/></g><g><g><path d="m391.53 150.59v30.12h-30.12v-30.12h30.12v-30.12h-30.12v-30.12l-30.12-30.11-75.29-15.06-75.29 15.06-30.12 30.11v30.12h-30.12v30.12h30.12v30.12h-30.12v-30.12h-60.23v30.12h30.11v30.11h30.12v60.24l-15.06 15.06 15.06 15.06 45.18 15.06 45.17-15.06 45.18-15.06 45.18 15.06 15.06 15.06 15.05-15.06 30.12-30.12 30.12-30.12v-30.12h30.12v-30.11h30.11v-30.12zm-90.35 60.23h-30.12v30.12h-30.12v-30.12h-30.12v-60.23h90.36z" fill="#ffd944"/></g><g><path d="m436.706 346.354-15.056 15.056v60.24h-30.12l-60.24 30.11-75.29 15.06-75.29-15.06-60.24-30.11h-30.12v-60.24h-30.11v-30.116l15.057-15.059 15.053 15.055 30.12 30.12h30.12v30.119l30.12.001v-30.12h30.11l45.18-15.057 45.18 15.057h30.11l30.12-30.12 30.119-15.05 30.121 15.05z" fill="#ffe79b"/></g></g><g><g fill="#cb9e56"><path d="m120.47 421.65h60.24v30.11h-60.24z"/><path d="m331.29 421.65h60.24v30.11h-60.24z"/><path d="m180.71 451.76h150.58v30.12h-150.58z"/></g><g fill="#fff4cb"><path d="m331.29 60.24h30.12v30.11h-30.12z"/><path d="m150.59 60.24h30.12v30.11h-30.12z"/><path d="m180.71 30.12h150.58v30.12h-150.58z"/></g><g fill="#ff9e22"><path d="m210.82 271.06h90.36v30.12h-90.36z"/><path d="m210.82 301.18v30.11h-30.11v30.12h-30.12v-30.12h-30.12v-30.11z"/><path d="m331.29 271.06h30.12v30.12h-30.12z"/><path d="m240.94 180.71h30.12v30.11h-30.12z"/><path d="m361.41 240.94h30.12v30.12h-30.12z"/><path d="m301.18 301.18h30.11v30.11h-30.11z"/><path d="m90.35 271.06h30.12v30.12h-30.12z"/></g><g fill="#5c371e"><path d="m180.706 90.356h30.12v30.11h-30.12z"/><path d="m301.175 90.356h30.12v30.11h-30.12z"/></g><g fill="#fffdf5"><path d="m60.234 301.18h30.12v30.12h-30.12z"/><path d="m90.35 331.294h30.12v30.12h-30.12z"/><path d="m421.646 331.294h30.12v30.12h-30.12z"/><path d="m331.293 331.294h30.12v30.12h-30.12z"/><path d="m210.822 331.294h90.354v30.12h-90.354z"/><path d="m361.411 301.18h60.236v30.12h-60.236z"/></g></g></g><g/><g/><g/><g/><g/><g/><g/><g/><g/><g/><g/><g/><g/><g/><g/></svg>